<svg width="18" height="18" viewBox="0 0 18 18" fill="none" xmlns="http://www.w3.org/2000/svg">
<path d="M11.9649 11.7539H12.5475L17.0381 16.2536L16.2545 17.0372L11.7549 12.5465V11.9639V11.7621L11.6148 11.6168L11.5335 11.5325L11.6178 11.6138L11.7631 11.7539H11.9649ZM11.0067 11.0058L10.6589 11.3047C9.60604 12.2099 8.24062 12.7539 6.75488 12.7539C3.44103 12.7539 0.754883 10.0678 0.754883 6.75391C0.754883 3.44005 3.44103 0.753906 6.75488 0.753906C10.0687 0.753906 12.7549 3.44005 12.7549 6.75391C12.7549 8.23964 12.2108 9.60506 11.3057 10.658L11.0067 11.0058ZM1.75488 6.75391C1.75488 9.52005 3.98874 11.7539 6.75488 11.7539C9.52103 11.7539 11.7549 9.52005 11.7549 6.75391C11.7549 3.98776 9.52103 1.75391 6.75488 1.75391C3.98874 1.75391 1.75488 3.98776 1.75488 6.75391Z" fill="#0C0C0C"/>
<path d="M11.9649 11.7539H12.5475L17.0381 16.2536L16.2545 17.0372L11.7549 12.5465V11.9639V11.7621L11.6148 11.6168L11.5335 11.5325L11.6178 11.6138L11.7631 11.7539H11.9649ZM11.0067 11.0058L10.6589 11.3047C9.60604 12.2099 8.24062 12.7539 6.75488 12.7539C3.44103 12.7539 0.754883 10.0678 0.754883 6.75391C0.754883 3.44005 3.44103 0.753906 6.75488 0.753906C10.0687 0.753906 12.7549 3.44005 12.7549 6.75391C12.7549 8.23964 12.2108 9.60506 11.3057 10.658L11.0067 11.0058ZM1.75488 6.75391C1.75488 9.52005 3.98874 11.7539 6.75488 11.7539C9.52103 11.7539 11.7549 9.52005 11.7549 6.75391C11.7549 3.98776 9.52103 1.75391 6.75488 1.75391C3.98874 1.75391 1.75488 3.98776 1.75488 6.75391Z" stroke="black"/>
<path d="M11.9649 11.7539H12.5475L17.0381 16.2536L16.2545 17.0372L11.7549 12.5465V11.9639V11.7621L11.6148 11.6168L11.5335 11.5325L11.6178 11.6138L11.7631 11.7539H11.9649ZM11.0067 11.0058L10.6589 11.3047C9.60604 12.2099 8.24062 12.7539 6.75488 12.7539C3.44103 12.7539 0.754883 10.0678 0.754883 6.75391C0.754883 3.44005 3.44103 0.753906 6.75488 0.753906C10.0687 0.753906 12.7549 3.44005 12.7549 6.75391C12.7549 8.23964 12.2108 9.60506 11.3057 10.658L11.0067 11.0058ZM1.75488 6.75391C1.75488 9.52005 3.98874 11.7539 6.75488 11.7539C9.52103 11.7539 11.7549 9.52005 11.7549 6.75391C11.7549 3.98776 9.52103 1.75391 6.75488 1.75391C3.98874 1.75391 1.75488 3.98776 1.75488 6.75391Z" stroke="black" stroke-opacity="0.2"/>
<path d="M11.9649 11.7539H12.5475L17.0381 16.2536L16.2545 17.0372L11.7549 12.5465V11.9639V11.7621L11.6148 11.6168L11.5335 11.5325L11.6178 11.6138L11.7631 11.7539H11.9649ZM11.0067 11.0058L10.6589 11.3047C9.60604 12.2099 8.24062 12.7539 6.75488 12.7539C3.44103 12.7539 0.754883 10.0678 0.754883 6.75391C0.754883 3.44005 3.44103 0.753906 6.75488 0.753906C10.0687 0.753906 12.7549 3.44005 12.7549 6.75391C12.7549 8.23964 12.2108 9.60506 11.3057 10.658L11.0067 11.0058ZM1.75488 6.75391C1.75488 9.52005 3.98874 11.7539 6.75488 11.7539C9.52103 11.7539 11.7549 9.52005 11.7549 6.75391C11.7549 3.98776 9.52103 1.75391 6.75488 1.75391C3.98874 1.75391 1.75488 3.98776 1.75488 6.75391Z" stroke="black" stroke-opacity="0.2"/>
<path d="M11.9649 11.7539H12.5475L17.0381 16.2536L16.2545 17.0372L11.7549 12.5465V11.9639V11.7621L11.6148 11.6168L11.5335 11.5325L11.6178 11.6138L11.7631 11.7539H11.9649ZM11.0067 11.0058L10.6589 11.3047C9.60604 12.2099 8.24062 12.7539 6.75488 12.7539C3.44103 12.7539 0.754883 10.0678 0.754883 6.75391C0.754883 3.44005 3.44103 0.753906 6.75488 0.753906C10.0687 0.753906 12.7549 3.44005 12.7549 6.75391C12.7549 8.23964 12.2108 9.60506 11.3057 10.658L11.0067 11.0058ZM1.75488 6.75391C1.75488 9.52005 3.98874 11.7539 6.75488 11.7539C9.52103 11.7539 11.7549 9.52005 11.7549 6.75391C11.7549 3.98776 9.52103 1.75391 6.75488 1.75391C3.98874 1.75391 1.75488 3.98776 1.75488 6.75391Z" stroke="black" stroke-opacity="0.2"/>
</svg>
