<?xml version="1.0" encoding="utf-8"?><svg xmlns="http://www.w3.org/2000/svg" xmlns:xlink="http://www.w3.org/1999/xlink"><symbol viewBox="0 0 12 8" id="arrow" xmlns="http://www.w3.org/2000/svg"><path d="M1.41 0.296875L6 4.87687L10.59 0.296875L12 1.70687L6 7.70687L0 1.70687L1.41 0.296875Z"/></symbol><symbol viewBox="0 0 24 24" id="bag" xmlns="http://www.w3.org/2000/svg"><path d="M18 6H16C16 3.79 14.21 2 12 2C9.79 2 8 3.79 8 6H6C4.9 6 4 6.9 4 8V20C4 21.1 4.9 22 6 22H18C19.1 22 20 21.1 20 20V8C20 6.9 19.1 6 18 6ZM12 4C13.1 4 14 4.9 14 6H10C10 4.9 10.9 4 12 4ZM18 20H6V8H8V10C8 10.55 8.45 11 9 11C9.55 11 10 10.55 10 10V8H14V10C14 10.55 14.45 11 15 11C15.55 11 16 10.55 16 10V8H18V20Z"/></symbol><symbol viewBox="0 0 19 12" id="burger" xmlns="http://www.w3.org/2000/svg"><path d="M0.5 12H18.5V10H0.5V12ZM0.5 7H18.5V5H0.5V7ZM0.5 0V2H18.5V0H0.5Z"/></symbol><symbol viewBox="0 0 15 14" id="close" xmlns="http://www.w3.org/2000/svg"><path d="M14.5 1.41L13.09 0L7.5 5.59L1.91 0L0.5 1.41L6.09 7L0.5 12.59L1.91 14L7.5 8.41L13.09 14L14.5 12.59L8.91 7L14.5 1.41Z"/></symbol><symbol viewBox="0 0 24 24" id="favorite" xmlns="http://www.w3.org/2000/svg"><path d="M11.2232 19.1147L11.2217 19.1134C8.62662 16.7602 6.55384 14.878 5.1178 13.1223C3.69324 11.3807 3 9.88574 3 8.32422C3 5.7965 4.97228 3.82422 7.5 3.82422C8.93721 3.82422 10.3322 4.49815 11.2386 5.56256L12 6.45662L12.7614 5.56256C13.6678 4.49815 15.0628 3.82422 16.5 3.82422C19.0277 3.82422 21 5.7965 21 8.32422C21 9.88575 20.3068 11.3807 18.882 13.1239C17.4459 14.8808 15.3734 16.7651 12.7786 19.1232C12.7782 19.1235 12.7778 19.1238 12.7775 19.1241L12.0026 19.8242L11.2232 19.1147Z" stroke-width="2"/></symbol><symbol viewBox="0 0 25 24" id="menu" xmlns="http://www.w3.org/2000/svg"><path d="M3.5 18H21.5V16H3.5V18ZM3.5 13H21.5V11H3.5V13ZM3.5 6V8H21.5V6H3.5Z"/></symbol><symbol viewBox="0 0 24 24" id="person" xmlns="http://www.w3.org/2000/svg"><path d="M18.39 15.06C16.71 14.2 14.53 13.5 12 13.5C9.47 13.5 7.29 14.2 5.61 15.06C4.61 15.57 4 16.6 4 17.72V20.5H20V17.72C20 16.6 19.39 15.57 18.39 15.06ZM18 18.5H6V17.72C6 17.34 6.2 17 6.52 16.84C7.71 16.23 9.63 15.5 12 15.5C14.37 15.5 16.29 16.23 17.48 16.84C17.8 17 18 17.34 18 17.72V18.5Z"/><path d="M12 12.5C14.21 12.5 16 10.71 16 8.5C16 7.13 16 5 16 5C16 4.17 15.33 3.5 14.5 3.5C13.98 3.5 13.52 3.77 13.25 4.17C12.98 3.77 12.52 3.5 12 3.5C11.48 3.5 11.02 3.77 10.75 4.17C10.48 3.77 10.02 3.5 9.5 3.5C8.67 3.5 8 4.17 8 5C8 5 8 7.12 8 8.5C8 10.71 9.79 12.5 12 12.5ZM10 6H14V8.5C14 9.6 13.1 10.5 12 10.5C10.9 10.5 10 9.6 10 8.5V6Z"/></symbol><symbol viewBox="0 0 18 18" id="search" xmlns="http://www.w3.org/2000/svg"><path d="M11.9649 11.7539H12.5475L17.0381 16.2536L16.2545 17.0372L11.7549 12.5465V11.9639V11.7621L11.6148 11.6168L11.5335 11.5325L11.6178 11.6138L11.7631 11.7539H11.9649ZM11.0067 11.0058L10.6589 11.3047C9.60604 12.2099 8.24062 12.7539 6.75488 12.7539C3.44103 12.7539 0.754883 10.0678 0.754883 6.75391C0.754883 3.44005 3.44103 0.753906 6.75488 0.753906C10.0687 0.753906 12.7549 3.44005 12.7549 6.75391C12.7549 8.23964 12.2108 9.60506 11.3057 10.658L11.0067 11.0058ZM1.75488 6.75391C1.75488 9.52005 3.98874 11.7539 6.75488 11.7539C9.52103 11.7539 11.7549 9.52005 11.7549 6.75391C11.7549 3.98776 9.52103 1.75391 6.75488 1.75391C3.98874 1.75391 1.75488 3.98776 1.75488 6.75391Z"/><path d="M11.9649 11.7539H12.5475L17.0381 16.2536L16.2545 17.0372L11.7549 12.5465V11.9639V11.7621L11.6148 11.6168L11.5335 11.5325L11.6178 11.6138L11.7631 11.7539H11.9649ZM11.0067 11.0058L10.6589 11.3047C9.60604 12.2099 8.24062 12.7539 6.75488 12.7539C3.44103 12.7539 0.754883 10.0678 0.754883 6.75391C0.754883 3.44005 3.44103 0.753906 6.75488 0.753906C10.0687 0.753906 12.7549 3.44005 12.7549 6.75391C12.7549 8.23964 12.2108 9.60506 11.3057 10.658L11.0067 11.0058ZM1.75488 6.75391C1.75488 9.52005 3.98874 11.7539 6.75488 11.7539C9.52103 11.7539 11.7549 9.52005 11.7549 6.75391C11.7549 3.98776 9.52103 1.75391 6.75488 1.75391C3.98874 1.75391 1.75488 3.98776 1.75488 6.75391Z"/><path d="M11.9649 11.7539H12.5475L17.0381 16.2536L16.2545 17.0372L11.7549 12.5465V11.9639V11.7621L11.6148 11.6168L11.5335 11.5325L11.6178 11.6138L11.7631 11.7539H11.9649ZM11.0067 11.0058L10.6589 11.3047C9.60604 12.2099 8.24062 12.7539 6.75488 12.7539C3.44103 12.7539 0.754883 10.0678 0.754883 6.75391C0.754883 3.44005 3.44103 0.753906 6.75488 0.753906C10.0687 0.753906 12.7549 3.44005 12.7549 6.75391C12.7549 8.23964 12.2108 9.60506 11.3057 10.658L11.0067 11.0058ZM1.75488 6.75391C1.75488 9.52005 3.98874 11.7539 6.75488 11.7539C9.52103 11.7539 11.7549 9.52005 11.7549 6.75391C11.7549 3.98776 9.52103 1.75391 6.75488 1.75391C3.98874 1.75391 1.75488 3.98776 1.75488 6.75391Z" stroke-opacity="0.2"/><path d="M11.9649 11.7539H12.5475L17.0381 16.2536L16.2545 17.0372L11.7549 12.5465V11.9639V11.7621L11.6148 11.6168L11.5335 11.5325L11.6178 11.6138L11.7631 11.7539H11.9649ZM11.0067 11.0058L10.6589 11.3047C9.60604 12.2099 8.24062 12.7539 6.75488 12.7539C3.44103 12.7539 0.754883 10.0678 0.754883 6.75391C0.754883 3.44005 3.44103 0.753906 6.75488 0.753906C10.0687 0.753906 12.7549 3.44005 12.7549 6.75391C12.7549 8.23964 12.2108 9.60506 11.3057 10.658L11.0067 11.0058ZM1.75488 6.75391C1.75488 9.52005 3.98874 11.7539 6.75488 11.7539C9.52103 11.7539 11.7549 9.52005 11.7549 6.75391C11.7549 3.98776 9.52103 1.75391 6.75488 1.75391C3.98874 1.75391 1.75488 3.98776 1.75488 6.75391Z" stroke-opacity="0.2"/><path d="M11.9649 11.7539H12.5475L17.0381 16.2536L16.2545 17.0372L11.7549 12.5465V11.9639V11.7621L11.6148 11.6168L11.5335 11.5325L11.6178 11.6138L11.7631 11.7539H11.9649ZM11.0067 11.0058L10.6589 11.3047C9.60604 12.2099 8.24062 12.7539 6.75488 12.7539C3.44103 12.7539 0.754883 10.0678 0.754883 6.75391C0.754883 3.44005 3.44103 0.753906 6.75488 0.753906C10.0687 0.753906 12.7549 3.44005 12.7549 6.75391C12.7549 8.23964 12.2108 9.60506 11.3057 10.658L11.0067 11.0058ZM1.75488 6.75391C1.75488 9.52005 3.98874 11.7539 6.75488 11.7539C9.52103 11.7539 11.7549 9.52005 11.7549 6.75391C11.7549 3.98776 9.52103 1.75391 6.75488 1.75391C3.98874 1.75391 1.75488 3.98776 1.75488 6.75391Z" stroke-opacity="0.2"/></symbol></svg>